<mxfile host="0043b2b5-8118-4157-a4a7-9649aa016990" modified="2020-08-17T17:28:41.353Z" agent="5.0 (X11; Linux x86_64) AppleWebKit/537.36 (KHTML, like Gecko) Code/1.47.3 Chrome/78.0.3904.130 Electron/7.3.2 Safari/537.36" etag="Z5OEQUa1pokek6CjzWw-" version="13.1.3">
    <diagram id="6hGFLwfOUW9BJ-s0fimq" name="Page-1">
        <mxGraphModel dx="683" dy="490" grid="1" gridSize="10" guides="1" tooltips="1" connect="1" arrows="1" fold="1" page="1" pageScale="1" pageWidth="827" pageHeight="1169" math="0" shadow="0">
            <root>
                <mxCell id="0"/>
                <mxCell id="1" parent="0"/>
                <mxCell id="2" value="&lt;b&gt;Cumulus Grid Getter&lt;/b&gt;" style="strokeWidth=1;shadow=0;dashed=0;align=center;html=1;shape=mxgraph.mockup.containers.window;align=left;verticalAlign=top;spacingLeft=8;strokeColor2=#008cff;strokeColor3=#c4c4c4;fontColor=#666666;mainText=;fontSize=17;labelBackgroundColor=none;fillColor=#ABABAB;" vertex="1" parent="1">
                    <mxGeometry x="150" y="50" width="470" height="450" as="geometry"/>
                </mxCell>
                <mxCell id="16" value="" style="strokeWidth=1;shadow=0;dashed=0;align=center;html=1;shape=mxgraph.mockup.forms.rrect;rSize=0;strokeColor=#999999;fillColor=#ffffff;recursiveResize=0;" vertex="1" parent="1">
                    <mxGeometry x="190" y="100" width="310" height="40" as="geometry"/>
                </mxCell>
                <mxCell id="23" value="" style="edgeStyle=orthogonalEdgeStyle;rounded=0;orthogonalLoop=1;jettySize=auto;html=1;" edge="1" parent="16">
                    <mxGeometry relative="1" as="geometry">
                        <mxPoint x="23" y="15" as="sourcePoint"/>
                        <mxPoint x="103" y="15" as="targetPoint"/>
                    </mxGeometry>
                </mxCell>
                <mxCell id="8" value="Select Watershed" style="strokeWidth=1;shadow=0;dashed=0;align=center;html=1;shape=mxgraph.mockup.forms.comboBox;strokeColor=#999999;fillColor=#ddeeff;align=left;fillColor2=#aaddff;mainText=;fontColor=#666666;fontSize=17;spacingLeft=3;" vertex="1" parent="16">
                    <mxGeometry x="10" y="8.75" width="290" height="22.5" as="geometry"/>
                </mxCell>
                <mxCell id="33" value="" style="strokeWidth=1;shadow=0;dashed=0;align=center;html=1;shape=mxgraph.mockup.forms.rrect;rSize=0;strokeColor=#999999;fillColor=#ffffff;recursiveResize=0;" vertex="1" parent="1">
                    <mxGeometry x="190" y="220" width="310" height="120" as="geometry"/>
                </mxCell>
                <mxCell id="34" value="NCEP Precip" style="strokeWidth=1;shadow=0;dashed=0;align=center;html=1;shape=mxgraph.mockup.forms.rrect;rSize=0;fillColor=#eeeeee;strokeColor=#999999;gradientColor=#cccccc;align=left;spacingLeft=4;fontSize=17;fontColor=#666666;labelPosition=right;" vertex="1" parent="33">
                    <mxGeometry x="8" y="7.5" width="15" height="15" as="geometry"/>
                </mxCell>
                <mxCell id="35" value="NCEP_RTMA_AIRTEMP" style="strokeWidth=1;shadow=0;dashed=0;align=center;html=1;shape=mxgraph.mockup.forms.rrect;rSize=0;fillColor=#eeeeee;strokeColor=#999999;gradientColor=#cccccc;align=left;spacingLeft=4;fontSize=17;fontColor=#666666;labelPosition=right;" vertex="1" parent="33">
                    <mxGeometry x="8" y="37.5" width="15" height="15" as="geometry"/>
                </mxCell>
                <mxCell id="105" value="" style="edgeStyle=orthogonalEdgeStyle;rounded=0;orthogonalLoop=1;jettySize=auto;html=1;" edge="1" parent="33">
                    <mxGeometry relative="1" as="geometry">
                        <mxPoint x="23" y="75" as="sourcePoint"/>
                        <mxPoint x="103" y="75" as="targetPoint"/>
                    </mxGeometry>
                </mxCell>
                <mxCell id="37" value="nohrsc_snodas_snowdepth" style="strokeWidth=1;shadow=0;dashed=0;align=center;html=1;shape=mxgraph.mockup.forms.rrect;rSize=0;fillColor=#eeeeee;strokeColor=#999999;gradientColor=#cccccc;align=left;spacingLeft=4;fontSize=17;fontColor=#666666;labelPosition=right;" vertex="1" parent="33">
                    <mxGeometry x="8" y="70" width="12" height="15" as="geometry"/>
                </mxCell>
                <mxCell id="91" value="DateTime_Start" style="strokeWidth=1;shadow=0;dashed=0;align=center;html=1;shape=mxgraph.mockup.text.textBox;fontColor=#666666;align=left;fontSize=17;spacingLeft=4;spacingTop=-3;strokeColor=#666666;mainText=;fillColor=#FFFAFA;" vertex="1" parent="1">
                    <mxGeometry x="190" y="170" width="150" height="30" as="geometry"/>
                </mxCell>
                <mxCell id="93" value="DateTime_End" style="strokeWidth=1;shadow=0;dashed=0;align=center;html=1;shape=mxgraph.mockup.text.textBox;fontColor=#666666;align=left;fontSize=17;spacingLeft=4;spacingTop=-3;strokeColor=#666666;mainText=;fillColor=#FFFAFA;" vertex="1" parent="1">
                    <mxGeometry x="350" y="170" width="150" height="30" as="geometry"/>
                </mxCell>
                <mxCell id="94" value="Submit" style="strokeWidth=1;shadow=0;dashed=0;align=center;html=1;shape=mxgraph.mockup.buttons.button;strokeColor=#666666;fontColor=#ffffff;mainText=;buttonStyle=round;fontSize=17;fontStyle=1;fillColor=#008cff;whiteSpace=wrap;" vertex="1" parent="1">
                    <mxGeometry x="310" y="370" width="150" height="50" as="geometry"/>
                </mxCell>
                <mxCell id="98" value="https://api.rsgis.dev/development/cumulus/basins" style="text;html=1;strokeColor=none;fillColor=none;align=center;verticalAlign=middle;whiteSpace=wrap;rounded=0;" vertex="1" parent="1">
                    <mxGeometry x="180" y="130" width="290" height="40" as="geometry"/>
                </mxCell>
                <mxCell id="100" value="https://api.rsgis.dev/development/cumulus/products" style="text;html=1;strokeColor=none;fillColor=none;align=center;verticalAlign=middle;whiteSpace=wrap;rounded=0;" vertex="1" parent="1">
                    <mxGeometry x="180" y="330" width="290" height="40" as="geometry"/>
                </mxCell>
                <mxCell id="108" value="File has been downloaded to: C:\file\path\name" style="text;html=1;strokeColor=none;fillColor=none;align=center;verticalAlign=middle;whiteSpace=wrap;rounded=0;" vertex="1" parent="1">
                    <mxGeometry x="240" y="450" width="290" height="40" as="geometry"/>
                </mxCell>
                <mxCell id="110" value="POST:&amp;nbsp; https://api.rsgis.dev/development/cumulus/download" style="text;html=1;strokeColor=none;fillColor=none;align=center;verticalAlign=middle;whiteSpace=wrap;rounded=0;" vertex="1" parent="1">
                    <mxGeometry x="190" y="410" width="350" height="40" as="geometry"/>
                </mxCell>
            </root>
        </mxGraphModel>
    </diagram>
</mxfile>